<svg version="1.1" id="Layer_1" xmlns="http://www.w3.org/2000/svg" x="0" y="0" viewBox="0 0 108.2 108.2" style="enable-background:new 0 0 108.2 108.2" xml:space="preserve"><style>.st0{fill:#231f20;stroke:#231f20;stroke-width:4px;stroke-miterlimit:10}.st1{fill:none;stroke:#fff;stroke-width:3px}.st2{fill:#fff;stroke:#231f20;stroke-width:4px;stroke-miterlimit:10}.st3{fill:none;stroke:#353435;stroke-width:3px}.st4{fill:#d0d2d3}.st6{fill:#74767a}.st7{fill:#ec712e}.st8{fill:#fff;stroke:#231f20;stroke-miterlimit:10}.st9{fill:#fff;stroke:#74767a;stroke-miterlimit:10}.st10{fill:none;stroke:#ec712e;stroke-width:2px;stroke-miterlimit:10}</style><circle cx="54.1" cy="54.1" r="54.1" style="fill:#cd4c18"/><path d="M56.7 79.5v7.1h-7.4v-7c-8.2-.7-14.1-3.8-18.3-8.1l6-8.4c3 3 7.1 5.7 12.3 6.6V57.5c-8-1.9-16.7-5-16.7-15.5 0-7.9 6.3-14.6 16.7-15.6v-7.2h7.4v7.4c6.3.6 11.6 3.1 15.8 6.9l-6.1 8.1c-2.7-2.6-6.1-4.2-9.6-5v10.9c8.1 2.1 17 5.2 17 15.8-.1 8.3-5.7 15-17.1 16.2zm-6.6-33.8v-9.9c-4 .4-6.1 2.4-6.1 5.2 0 2.5 2.5 3.8 6.1 4.7zm12.4 18.7c0-2.9-2.7-4.2-6.4-5.3V70c4.4-.7 6.4-3.1 6.4-5.6z" style="fill:#fff"/></svg>