<?xml version="1.0" encoding="utf-8"?>
<!-- Generator: Adobe Illustrator 27.7.0, SVG Export Plug-In . SVG Version: 6.00 Build 0)  -->
<svg version="1.1" id="Layer_1" xmlns="http://www.w3.org/2000/svg" xmlns:xlink="http://www.w3.org/1999/xlink" x="0px" y="0px"
	 viewBox="0 0 231.2 108.2" style="enable-background:new 0 0 231.2 108.2;" xml:space="preserve">
<style type="text/css">
	.st0{fill:#231F20;stroke:#231F20;stroke-width:4;stroke-miterlimit:10;}
	.st1{fill:none;stroke:#FFFFFF;stroke-width:3;}
	.st2{fill:#FFFFFF;stroke:#231F20;stroke-width:4;stroke-miterlimit:10;}
	.st3{fill:none;stroke:#353435;stroke-width:3;}
	.st4{fill:#D0D2D3;}
	.st5{fill:#FFFFFF;}
	.st6{fill:#74767A;}
	.st7{fill:#CD4C18;}
	.st8{fill:#FFFFFF;stroke:#231F20;stroke-miterlimit:10;}
	.st9{fill:#FFFFFF;stroke:#74767A;stroke-miterlimit:10;}
	.st10{fill:none;stroke:#EC712E;stroke-width:2;stroke-miterlimit:10;}
	.st11{fill:#4C7B91;}
</style>
<g>
	<g>
		<circle class="st7" cx="54.1" cy="54.1" r="54.1"/>
		<g>
			<path class="st5" d="M56.7,79.5v7.1h-7.4v-7c-8.2-0.7-14.1-3.8-18.3-8.1l6-8.4c2.9,3,7.1,5.7,12.3,6.6V57.5
				c-8-1.9-16.7-5-16.7-15.5c0-7.9,6.3-14.6,16.7-15.6v-7.2h7.4v7.4c6.3,0.6,11.6,3.1,15.8,6.9l-6.1,8.1c-2.7-2.6-6.1-4.2-9.6-5
				v10.9c8.1,2.1,17,5.2,17,15.8C73.7,71.6,68.1,78.3,56.7,79.5z M50.1,45.7v-9.9c-4,0.4-6.1,2.4-6.1,5.2
				C44,43.5,46.5,44.8,50.1,45.7z M62.5,64.4c0-2.9-2.7-4.2-6.4-5.3v10.9C60.5,69.3,62.5,66.9,62.5,64.4z"/>
		</g>
	</g>
	<g>
		<circle class="st7" cx="114.4" cy="54.1" r="54.1"/>
		<g>
			<path class="st5" d="M117.1,79.5v7.1h-7.4v-7c-8.2-0.7-14.1-3.8-18.3-8.1l6-8.4c2.9,3,7.1,5.7,12.3,6.6V57.5
				c-8-1.9-16.7-5-16.7-15.5c0-7.9,6.3-14.6,16.7-15.6v-7.2h7.4v7.4c6.3,0.6,11.6,3.1,15.8,6.9l-6.1,8.1c-2.7-2.6-6.1-4.2-9.6-5
				v10.9c8.1,2.1,17,5.2,17,15.8C134.1,71.6,128.5,78.3,117.1,79.5z M110.4,45.7v-9.9c-4,0.4-6.1,2.4-6.1,5.2
				C104.3,43.5,106.8,44.8,110.4,45.7z M122.8,64.4c0-2.9-2.7-4.2-6.4-5.3v10.9C120.8,69.3,122.8,66.9,122.8,64.4z"/>
		</g>
	</g>
	<g>
		<circle class="st7" cx="177.1" cy="54.1" r="54.1"/>
		<g>
			<path class="st5" d="M179.7,79.5v7.1h-7.4v-7c-8.2-0.7-14.1-3.8-18.3-8.1l6-8.4c2.9,3,7.1,5.7,12.3,6.6V57.5
				c-8-1.9-16.7-5-16.7-15.5c0-7.9,6.3-14.6,16.7-15.6v-7.2h7.4v7.4c6.3,0.6,11.6,3.1,15.8,6.9l-6.1,8.1c-2.7-2.6-6.1-4.2-9.6-5
				v10.9c8.1,2.1,17,5.2,17,15.8C196.7,71.6,191.1,78.3,179.7,79.5z M173,45.7v-9.9c-4,0.4-6.1,2.4-6.1,5.2
				C166.9,43.5,169.4,44.8,173,45.7z M185.4,64.4c0-2.9-2.7-4.2-6.4-5.3v10.9C183.4,69.3,185.4,66.9,185.4,64.4z"/>
		</g>
	</g>
</g>
</svg>
