<?xml version="1.0" encoding="UTF-8"?><svg id="Layer_1" xmlns="http://www.w3.org/2000/svg" viewBox="0 0 1217 411"><defs><style>.cls-1{letter-spacing:0em;}.cls-2{fill:#fff;stroke:#b3b3b3;}.cls-2,.cls-3{stroke-miterlimit:10;stroke-width:5px;}.cls-3{stroke:#ec712e;}.cls-3,.cls-4{fill:#ec712e;}.cls-4{font-size:18px;}.cls-4,.cls-5{font-family:Roboto-Bold, Roboto;font-weight:700;}.cls-6{letter-spacing:-.01em;}.cls-7{letter-spacing:-.02em;}.cls-8{letter-spacing:0em;}.cls-5{font-size:24px;}.cls-9{font-family:ProximaNova-Regular, 'Proxima Nova';font-size:16px;}.cls-10{letter-spacing:-.03em;}.cls-11{font-family:Roboto-Light, Roboto;font-size:42px;font-weight:300;}.cls-12{letter-spacing:0em;}.cls-13{letter-spacing:0em;}.cls-14{letter-spacing:-.03em;}.cls-15{letter-spacing:-.01em;}.cls-16{letter-spacing:-.1em;}</style></defs><line class="cls-2" x1="34" y1="370.5" x2="1187" y2="370.5"/><circle class="cls-2" cx="26" cy="370" r="7.5"/><circle class="cls-2" cx="193" cy="370" r="7.5"/><circle class="cls-2" cx="360" cy="370" r="7.5"/><circle class="cls-2" cx="527" cy="370" r="7.5"/><circle class="cls-2" cx="694" cy="370" r="7.5"/><circle class="cls-2" cx="861" cy="370" r="7.5"/><circle class="cls-2" cx="1028" cy="370" r="7.5"/><circle class="cls-2" cx="1195" cy="370" r="7.5"/><text class="cls-9" transform="translate(6.28 403.1)"><tspan x="0" y="0">2000</tspan></text><text class="cls-9" transform="translate(173.76 403.1)"><tspan x="0" y="0">2005</tspan></text><text class="cls-9" transform="translate(342.77 403.1)"><tspan x="0" y="0">2010</tspan></text><text class="cls-9" transform="translate(510.25 403.1)"><tspan x="0" y="0">2015</tspan></text><text class="cls-9" transform="translate(674.39 403.1)"><tspan x="0" y="0">2020</tspan></text><text class="cls-9" transform="translate(841.57 403.1)"><tspan x="0" y="0">2025</tspan></text><text class="cls-9" transform="translate(1008.64 403.1)"><tspan x="0" y="0">2030</tspan></text><text class="cls-9" transform="translate(1176.12 404.1)"><tspan x="0" y="0">2035</tspan></text><text class="cls-4" transform="translate(149.86 201.19)"><tspan x="0" y="0">2004</tspan></text><text class="cls-5" transform="translate(149.86 230.33)"><tspan x="0" y="0">In the same </tspan><tspan class="cls-13" x="131.84" y="0">y</tspan><tspan x="143.73" y="0">ear that the F</tspan><tspan class="cls-6" x="286.43" y="0">D</tspan><tspan x="301.78" y="0">A app</tspan><tspan class="cls-7" x="363.8" y="0">r</tspan><tspan class="cls-8" x="372.13" y="0">o</tspan><tspan class="cls-13" x="385.52" y="0">v</tspan><tspan x="397.5" y="0">es</tspan><tspan class="cls-14" x="422.81" y="0"> </tspan><tspan class="cls-10" x="428.09" y="0">T</tspan><tspan x="442.17" y="0">ru</tspan><tspan class="cls-8" x="464.36" y="0">v</tspan><tspan x="476.31" y="0">ada </tspan><tspan class="cls-15" x="521.54" y="0">t</tspan><tspan x="529.3" y="0">o t</tspan><tspan class="cls-1" x="556.96" y="0">r</tspan><tspan x="565.49" y="0">eat HI</tspan><tspan class="cls-16" x="629.37" y="0">V</tspan><tspan x="642.54" y="0">, Gilead del</tspan><tspan class="cls-8" x="761.65" y="0">a</tspan><tspan x="774.34" y="0">ys </tspan><tspan x="0" y="32">its clinical trial comparing</tspan><tspan class="cls-14" x="279.49" y="32"> </tspan><tspan class="cls-10" x="284.77" y="32">T</tspan><tspan x="298.85" y="32">ru</tspan><tspan class="cls-8" x="321.04" y="32">v</tspan><tspan x="332.99" y="32">ada </tspan><tspan class="cls-15" x="378.22" y="32">t</tspan><tspan x="385.98" y="32">o similar drugs it was d</tspan><tspan class="cls-13" x="635.85" y="32">ev</tspan><tspan x="660.64" y="32">eloping — the </tspan><tspan x="0" y="64">study showed the new drugs we</tspan><tspan class="cls-1" x="343.72" y="64">r</tspan><tspan x="352.25" y="64">e pe</tspan><tspan class="cls-12" x="397.69" y="64">r</tspan><tspan x="406.68" y="64">forming f</tspan><tspan class="cls-8" x="506.46" y="64">av</tspan><tspan x="531.11" y="64">o</tspan><tspan class="cls-15" x="544.68" y="64">r</tspan><tspan x="553.08" y="64">ably</tspan></text><text class="cls-11" transform="translate(24.47 34.32)"><tspan x="0" y="0">The Resea</tspan><tspan class="cls-1" x="193.86" y="0">r</tspan><tspan x="207.6" y="0">ch</tspan></text><circle class="cls-3" cx="159.5" cy="370.5" r="12"/></svg>