<?xml version="1.0" encoding="UTF-8"?><svg id="Layer_1" xmlns="http://www.w3.org/2000/svg" viewBox="0 0 1217 411"><defs><style>.cls-1{letter-spacing:0em;}.cls-2{fill:#fff;stroke:#b3b3b3;}.cls-2,.cls-3{stroke-miterlimit:10;stroke-width:5px;}.cls-3{stroke:#ec712e;}.cls-3,.cls-4{fill:#ec712e;}.cls-5{letter-spacing:.02em;}.cls-4{font-size:18px;}.cls-4,.cls-6{font-family:Roboto-Bold, Roboto;font-weight:700;}.cls-7{letter-spacing:-.01em;}.cls-8{letter-spacing:-.02em;}.cls-9{letter-spacing:0em;}.cls-6{font-size:24px;}.cls-10{font-family:ProximaNova-Regular, 'Proxima Nova';font-size:16px;}.cls-11{letter-spacing:-.03em;}.cls-12{font-family:Roboto-Light, Roboto;font-size:42px;font-weight:300;}.cls-13{letter-spacing:0em;}.cls-14{letter-spacing:0em;}.cls-15{letter-spacing:-.03em;}.cls-16{letter-spacing:-.01em;}.cls-17{letter-spacing:-.1em;}</style></defs><line class="cls-2" x1="34" y1="370.5" x2="1187" y2="370.5"/><circle class="cls-2" cx="26" cy="370" r="7.5"/><circle class="cls-2" cx="193" cy="370" r="7.5"/><circle class="cls-2" cx="360" cy="370" r="7.5"/><circle class="cls-2" cx="527" cy="370" r="7.5"/><circle class="cls-2" cx="694" cy="370" r="7.5"/><circle class="cls-2" cx="861" cy="370" r="7.5"/><circle class="cls-2" cx="1028" cy="370" r="7.5"/><circle class="cls-2" cx="1195" cy="370" r="7.5"/><text class="cls-10" transform="translate(6.28 403.1)"><tspan x="0" y="0">2000</tspan></text><text class="cls-10" transform="translate(173.76 403.1)"><tspan x="0" y="0">2005</tspan></text><text class="cls-10" transform="translate(342.77 403.1)"><tspan x="0" y="0">2010</tspan></text><text class="cls-10" transform="translate(510.25 403.1)"><tspan x="0" y="0">2015</tspan></text><text class="cls-10" transform="translate(674.39 403.1)"><tspan x="0" y="0">2020</tspan></text><text class="cls-10" transform="translate(841.57 403.1)"><tspan x="0" y="0">2025</tspan></text><text class="cls-10" transform="translate(1008.64 403.1)"><tspan x="0" y="0">2030</tspan></text><text class="cls-10" transform="translate(1176.12 404.1)"><tspan x="0" y="0">2035</tspan></text><text class="cls-12" transform="translate(24.47 34.32)"><tspan x="0" y="0">The Resea</tspan><tspan class="cls-1" x="193.86" y="0">r</tspan><tspan x="207.6" y="0">ch</tspan></text><text class="cls-4" transform="translate(24.47 75.19)"><tspan x="0" y="0">2004</tspan></text><text class="cls-6" transform="translate(24.47 104.33)"><tspan x="0" y="0">In the same </tspan><tspan class="cls-14" x="131.84" y="0">y</tspan><tspan x="143.73" y="0">ear that the </tspan><tspan x="0" y="32">F</tspan><tspan class="cls-7" x="13.15" y="32">D</tspan><tspan x="28.5" y="32">A app</tspan><tspan class="cls-8" x="90.52" y="32">r</tspan><tspan class="cls-9" x="98.85" y="32">o</tspan><tspan class="cls-14" x="112.24" y="32">v</tspan><tspan x="124.22" y="32">es</tspan><tspan class="cls-15" x="149.53" y="32"> </tspan><tspan class="cls-11" x="154.8" y="32">T</tspan><tspan x="168.89" y="32">ru</tspan><tspan class="cls-9" x="191.07" y="32">v</tspan><tspan x="203.03" y="32">ada </tspan><tspan class="cls-16" x="248.26" y="32">t</tspan><tspan x="256.02" y="32">o </tspan><tspan x="0" y="64">t</tspan><tspan class="cls-1" x="8.11" y="64">r</tspan><tspan x="16.64" y="64">eat HI</tspan><tspan class="cls-17" x="80.52" y="64">V</tspan><tspan x="93.69" y="64">, Gilead del</tspan><tspan class="cls-9" x="212.8" y="64">a</tspan><tspan x="225.49" y="64">ys its </tspan><tspan x="0" y="96">clinical trial comparing </tspan><tspan class="cls-11" x="0" y="128">T</tspan><tspan x="14.09" y="128">ru</tspan><tspan class="cls-9" x="36.27" y="128">v</tspan><tspan x="48.22" y="128">ada </tspan><tspan class="cls-16" x="93.46" y="128">t</tspan><tspan x="101.21" y="128">o similar drugs it </tspan><tspan x="0" y="160">was d</tspan><tspan class="cls-14" x="62.34" y="160">ev</tspan><tspan x="87.14" y="160">eloping — the study </tspan><tspan x="0" y="192">showed the new drugs we</tspan><tspan class="cls-1" x="278.3" y="192">r</tspan><tspan x="286.83" y="192">e </tspan><tspan x="0" y="224">pe</tspan><tspan class="cls-13" x="26.48" y="224">r</tspan><tspan x="35.47" y="224">forming f</tspan><tspan class="cls-9" x="135.26" y="224">av</tspan><tspan x="159.9" y="224">o</tspan><tspan class="cls-16" x="173.47" y="224">r</tspan><tspan x="181.88" y="224">ably</tspan></text><text class="cls-4" transform="translate(360.86 74.19)"><tspan x="0" y="0">2010</tspan></text><text class="cls-6" transform="translate(360.86 103.33)"><tspan x="0" y="0">Gilead announces </tspan><tspan x="0" y="32">it is </tspan><tspan class="cls-1" x="45.13" y="32">r</tspan><tspan x="53.66" y="32">esta</tspan><tspan class="cls-5" x="99.95" y="32">r</tspan><tspan x="109.29" y="32">ting the </tspan><tspan x="0" y="64">clinical trial&quot;</tspan></text><circle class="cls-3" cx="159.5" cy="370.5" r="12"/><circle class="cls-3" cx="359.5" cy="369.5" r="12"/></svg>